# xmcd
#
# Track frame offsets:
#	150
#	11718
#	24785
#	39914
#	56560
#	75465
#	91854
#	106298
#	119707
#	140184
#	151324
#
# Disc length: 2235 seconds
# Revision: 3
# Processed by: cddbd v1.5.2PL0 Copyright (c) Steve Scherf et al.
# Submitted via: dBpowerAMP V12.0
#
DISCID=8208b90b
DTITLE=Garth Brooks - The Anthology Part 1, The First Five Years 1989
DYEAR=1989
DGENRE=Country
TTITLE0=Not Counting You (Master)
TTITLE1=I've Got A Good Thing Going (Master)
TTITLE2=If Tomorrow Never Comes (Day-Write)
TTITLE3=If Tomorrow Never Comes (Master)
TTITLE4=Everytime That It Rains (Master)
TTITLE5=Alabama Clay (Master)
TTITLE6=Much Too Young (To Feel This Damn Old) (First Take)
TTITLE7=Much Too Young (Too Feel This Damn Old)(Master)
TTITLE8=Cowboy Bill (Master)
TTITLE9=The Dance (Tony Arata Day-Write)
TTITLE10=The Dance (Master)
EXTD=
EXTT0=
EXTT1=
EXTT2=
EXTT3=
EXTT4=
EXTT5=
EXTT6=
EXTT7=
EXTT8=
EXTT9=
EXTT10=
PLAYORDER=
